<svg width="1920" height="1080" viewBox="0 0 1920 1080" fill="none" xmlns="http://www.w3.org/2000/svg">
  <defs>
    <linearGradient id="bg" x1="0" y1="0" x2="1920" y2="1080" gradientUnits="userSpaceOnUse">
      <stop stop-color="#CFE2FF"/>
      <stop offset="0.45" stop-color="#F5F9FF"/>
      <stop offset="1" stop-color="#CFE2FF"/>
    </linearGradient>
    <linearGradient id="accent" x1="0" y1="0" x2="1" y2="1">
      <stop stop-color="#3B82F6" stop-opacity="0.28"/>
      <stop offset="1" stop-color="#2563EB" stop-opacity="0.12"/>
    </linearGradient>
    <pattern id="grid" width="44" height="44" patternUnits="userSpaceOnUse">
      <path d="M44 0H0V44" stroke="#60A5FA" stroke-opacity="0.18"/>
    </pattern>
    <pattern id="dots" width="16" height="16" patternUnits="userSpaceOnUse">
      <circle cx="2" cy="2" r="1.5" fill="#60A5FA" fill-opacity="0.2"/>
    </pattern>
  </defs>

  <rect width="1920" height="1080" fill="url(#bg)"/>
  <rect width="1920" height="1080" fill="url(#grid)"/>
  <rect width="1920" height="1080" fill="url(#dots)"/>

  <rect x="0" y="0" width="420" height="1080" fill="url(#accent)"/>
  <rect x="1500" y="0" width="420" height="1080" fill="url(#accent)"/>

  <g opacity="0.55" stroke="#3B82F6" stroke-width="8" fill="none">
    <circle cx="1670" cy="230" r="120"/>
    <circle cx="1670" cy="230" r="70"/>
    <circle cx="1670" cy="230" r="145" stroke-opacity="0.45"/>
  </g>
  <g opacity="0.42" stroke="#3B82F6" stroke-width="4" fill="none">
    <rect x="90" y="560" width="120" height="190" rx="12"/>
    <rect x="1530" y="470" width="110" height="180" rx="12"/>
    <circle cx="1735" cy="560" r="60"/>
    <circle cx="1700" cy="690" r="45"/>
    <rect x="145" y="900" width="520" height="80" rx="30"/>
    <rect x="1430" y="910" width="420" height="80" rx="30"/>
  </g>

  <g opacity="0.35" stroke="#60A5FA" stroke-width="2">
    <path d="M70 250L430 120"/>
    <path d="M1550 790L1860 930"/>
    <path d="M40 1000L510 730"/>
    <path d="M1380 160L1880 70"/>
    <path d="M1260 430L1750 180"/>
  </g>
</svg>
